<svg version="1.0" xmlns="http://www.w3.org/2000/svg" viewBox="0 0 668 68"><path d="M13.6 1.4C2.4 5.6-3.1 19.2 1.6 30.9c2 4.9 20.4 22.4 23.1 21.9 4.2-.8 2.2-4.3-7.3-12.8-6.8-6.2-9.8-9.7-11-12.7C2.5 17.1 9 7.1 20.2 6.2c4.4-.3 5.9 0 8.7 2 4.4 3 7.1 6.7 8 10.9.5 2.7 1.2 3.4 3.1 3.4 1.9 0 2.6-.7 3.1-3.4.9-4.2 3.6-7.9 8-10.9 2.8-2 4.3-2.3 8.7-2 11.9 1 18.6 12.5 13 22.4-1.3 2.2-9.2 10.5-17.6 18.4L39.9 61.3l-3.2-3.2c-3.7-3.4-6.2-4-7.1-1.4-.7 1.8 7.8 11.3 10.2 11.3 2.3 0 35.5-31.7 37.9-36.2 3-5.4 3.1-14.3.4-19.7-6.9-13.5-24.9-16-35.3-4.8L40 10.2l-2.8-2.9c-5.7-6.2-15.9-8.8-23.6-5.9zM118 35.5V57h8.9c7.5 0 9.3-.3 12.1-2.3 6-4 7.5-7.8 7.5-19.2 0-11.4-1.5-15.2-7.5-19.2-2.8-2-4.6-2.3-12.1-2.3H118v21.5zm16.5-12c2.3 2.2 2.5 3.2 2.5 12s-.2 9.8-2.5 12c-1.3 1.4-3.6 2.5-5 2.5H127V21h2.5c1.4 0 3.7 1.1 5 2.5zM154.2 27.7c-2.3 7.6-5.3 17.3-6.7 21.6l-2.4 7.8 5.2-.3 5.2-.3.9-4.3.9-4.3 5.6.3 5.6.3.9 4.2.9 4.3h10.5l-3.4-10.8c-1.8-5.9-4.8-15.5-6.6-21.4L167.5 14h-9.1l-4.2 13.7zM176.9 18.7c1.1 2.7 3.5 8.6 5.5 13.3 3.2 7.4 3.6 9.5 3.6 16.7V57h9.8l.4-8.7c.4-8 .9-9.9 6-21.6l5.6-12.7h-10.6l-3 8.7-2.9 8.8-2.9-8.8-2.8-8.7H175l1.9 4.7zM222 35.5V57h8.9l.3-13 .3-13 5.7 12.7 5.7 12.8 5 .3 5.1.3V14h-9.9l-.3 12.2-.3 12.3-5.4-12.3-5.4-12.2H222v21.5zM257 31.5c0 19.5.7 22.2 6 25 4.2 2.2 12.8 1.9 16.7-.5 5.3-3.2 5.7-4.9 6.1-24.3l.4-17.7H276v16.9c0 18-.5 20.1-5 20.1-4.2 0-5-3.4-5-20.7V14h-9v17.5zM290 35.5V57h10v-8c0-10.6 1.7-10.6 6 0l3.2 8h4.9c2.7 0 4.9-.4 4.9-.9s-1.5-4.5-3.4-8.9l-3.3-8 2.5-2.5c1.9-1.9 2.6-3.9 3-7.9.9-11.4-3.3-14.8-18-14.8H290v21.5zM326.3 16c-4 2.4-5.3 4.8-5.3 9.7 0 5.9 3.1 9.9 10.2 13.3 3.4 1.7 6.5 3.6 7 4.3 1.4 2.2.8 5.6-1.2 6.7-3 1.6-6 .3-7.2-3.1-.9-2.6-1.4-2.9-5.4-2.9-3.8 0-4.4.3-4.4 2 0 6.7 6.6 12 14.8 12 9.3 0 13.8-4.2 13.6-12.6-.1-6-2.4-8.9-10.3-12.9-7.8-3.9-9.5-6.5-6.3-9.7 2.5-2.5 6-1.6 6.8 1.8.5 2.1 1.2 2.4 5.5 2.4 4.9 0 4.9 0 4.3-2.8-1.7-6.9-6.2-10.2-13.9-10.2-3.2 0-6.2.7-8.2 2zM351 35.5V57h25v-7h-16V38h14v-7h-14V21h16v-7h-25v21.5zM379 35.5V57h10v-8c0-10.6 1.7-10.6 6 0l3.2 8h4.9c2.7 0 4.9-.4 4.9-.9s-1.5-4.5-3.4-8.9l-3.3-8 2.5-2.5c1.9-1.9 2.6-3.9 3-7.9.9-11.4-3.3-14.8-18-14.8H379v21.5zM408.9 18.7c1.1 2.7 3.5 8.6 5.5 13.3 3.2 7.4 3.6 9.5 3.6 16.7V57h9.8l.4-8.7c.4-8 .9-9.9 6-21.6l5.6-12.7h-10.6l-3 8.7-2.9 8.8-2.9-8.8-2.8-8.7H407l1.9 4.7zM460.3 16c-5.6 3.3-6.8 7-6.8 20 0 9.2.4 12.2 1.8 14.8 2.6 4.8 7.2 7.2 13.5 7.2 8.7 0 12.8-3.3 14.7-11.8l.7-3.2h-5.1c-4.7 0-5.1.2-5.1 2.4 0 2.5-3.2 5.6-5.7 5.6-.7 0-2.2-.9-3.3-2-1.8-1.8-2-3.3-2-13s.2-11.2 2-13c3.7-3.7 9-1.5 9 3.6 0 2.2.4 2.4 5.1 2.4h5.1l-.7-3.3c-1.2-5.1-3.3-8.5-6.5-10.2-4.2-2.2-12.8-1.9-16.7.5zM486 35.5V57h25v-7h-16V38h14v-7h-14V21h16v-7h-25v21.5zM514 35.5V57h8.9l.3-13 .3-13 5.7 12.7 5.7 12.8 5 .3 5.1.3V14h-9.9l-.3 12.2-.3 12.3-5.4-12.3-5.4-12.2H514v21.5zM547 17.5V21h10v36h10V21h11v-7h-31v3.5zM579 35.5V57h10v-8c0-10.6 1.7-10.6 6 0l3.2 8h4.9c2.7 0 4.9-.4 4.9-.9s-1.5-4.5-3.4-8.9l-3.3-8 2.5-2.5c1.9-1.9 2.6-3.9 3-7.9.9-11.4-3.3-14.8-18-14.8H579v21.5zM611 35.5V57h25v-7h-16V38h14v-7h-14V21h16v-7h-25v21.5z"/></svg>
